<svg xmlns="http://www.w3.org/2000/svg" viewBox="0 0 1600 1000" preserveAspectRatio="xMidYMid slice">
  <defs>
    <linearGradient id="bg" x1="0" y1="0" x2="1" y2="1">
      <stop offset="0" stop-color="#292520"/>
      <stop offset="1" stop-color="#423B31"/>
    </linearGradient>
    <radialGradient id="glow" cx="0.72" cy="0.2" r="0.9">
      <stop offset="0" stop-color="#C6A566" stop-opacity="0.14"/>
      <stop offset="1" stop-color="#C6A566" stop-opacity="0"/>
    </radialGradient>
  </defs>
  <rect width="1600" height="1000" fill="url(#bg)"/>
  <rect width="1600" height="1000" fill="url(#glow)"/>
  
    <rect x="360" y="280" width="880" height="440" fill="none" stroke="#C6A566" stroke-width="3" opacity="0.9"/>
    <rect x="410" y="330" width="96" height="90" fill="none" stroke="#C6A566" stroke-width="2" opacity="0.5"/><rect x="538" y="330" width="96" height="90" fill="none" stroke="#C6A566" stroke-width="2" opacity="0.5"/><rect x="666" y="330" width="96" height="90" fill="none" stroke="#C6A566" stroke-width="2" opacity="0.5"/><rect x="794" y="330" width="96" height="90" fill="none" stroke="#C6A566" stroke-width="2" opacity="0.5"/><rect x="922" y="330" width="96" height="90" fill="none" stroke="#C6A566" stroke-width="2" opacity="0.5"/><rect x="1050" y="330" width="96" height="90" fill="none" stroke="#C6A566" stroke-width="2" opacity="0.5"/><rect x="410" y="452" width="96" height="90" fill="none" stroke="#C6A566" stroke-width="2" opacity="0.5"/><rect x="538" y="452" width="96" height="90" fill="none" stroke="#C6A566" stroke-width="2" opacity="0.5"/><rect x="666" y="452" width="96" height="90" fill="none" stroke="#C6A566" stroke-width="2" opacity="0.5"/><rect x="794" y="452" width="96" height="90" fill="none" stroke="#C6A566" stroke-width="2" opacity="0.5"/><rect x="922" y="452" width="96" height="90" fill="none" stroke="#C6A566" stroke-width="2" opacity="0.5"/><rect x="1050" y="452" width="96" height="90" fill="none" stroke="#C6A566" stroke-width="2" opacity="0.5"/><rect x="410" y="574" width="96" height="90" fill="none" stroke="#C6A566" stroke-width="2" opacity="0.5"/><rect x="538" y="574" width="96" height="90" fill="none" stroke="#C6A566" stroke-width="2" opacity="0.5"/><rect x="666" y="574" width="96" height="90" fill="none" stroke="#C6A566" stroke-width="2" opacity="0.5"/><rect x="794" y="574" width="96" height="90" fill="none" stroke="#C6A566" stroke-width="2" opacity="0.5"/><rect x="922" y="574" width="96" height="90" fill="none" stroke="#C6A566" stroke-width="2" opacity="0.5"/><rect x="1050" y="574" width="96" height="90" fill="none" stroke="#C6A566" stroke-width="2" opacity="0.5"/>
    <line x1="220" y1="720" x2="1380" y2="720" stroke="#C6A566" stroke-width="2" opacity="0.7"/>
</svg>